<svg xmlns="http://www.w3.org/2000/svg" xmlns:xlink="http://www.w3.org/1999/xlink" version="1.1" width="1000" height="1000" viewBox="0 0 1000 1000" xml:space="preserve">
<desc>Created with Fabric.js 3.5.0</desc>
<defs>
</defs>
<rect x="0" y="0" width="100%" height="100%" fill="#ffffff"/>
<g transform="matrix(2.2683 0 0 2.2683 461.1608 407.2467)" id="534868">
<path style="stroke: none; stroke-width: 1; stroke-dasharray: none; stroke-linecap: butt; stroke-dashoffset: 0; stroke-linejoin: miter; stroke-miterlimit: 4; is-custom-font: none; font-file-url: none; fill: rgb(112,42,247); fill-rule: nonzero; opacity: 1;" vector-effect="non-scaling-stroke" transform=" translate(-153.4511, -138.0631)" d="m 303.935 88.479 c -6.598 41.362 -27.653 79.041 -59.42 106.335 s -72.185 42.433 -114.064 42.723 c -8.483 0.326 -16.977 -0.19 -25.358 -1.539 a 77.723 77.723 0 0 1 -64.63 -73.266 a 75.479 75.479 0 0 1 22.14 -52.762 a 75.46 75.46 0 0 1 105.885 -0.748 a 75.478 75.478 0 0 1 22.884 52.443 c 0.317 12.51 -5.102 23.483 -16.239 23.8 c -11.899 0 -17.477 -8.491 -17.477 -19.934 v -31.797 a 19.478 19.478 0 0 0 -19.323 -19.494 h -26.653 a 46.386 46.386 0 0 0 -39.119 20.961 a 46.399 46.399 0 0 0 31.587 71.268 a 46.392 46.392 0 0 0 41.8 -14.911 l 0.932 -1.39 l 0.933 1.543 a 32.82 32.82 0 0 0 27.986 13.328 a 36.992 36.992 0 0 0 34.268 -38.671 a 100.64 100.64 0 0 0 -2.761 -24.577 c -4.943 -22.734 -18.126 -42.834 -37.008 -56.423 a 94.153 94.153 0 0 0 -125.236 13.718 a 94.175 94.175 0 0 0 -23.92 63.097 a 95.352 95.352 0 0 0 27.473 65.824 a 95.331 95.331 0 0 0 65.448 28.344 s 6.98 0.635 14.849 0.454 a 200.94 200.94 0 0 0 107.769 -32.155 c 0.457 -0.318 0.914 0.317 0.61 0.78 a 158.177 158.177 0 0 1 -123.225 50.396 a 111.185 111.185 0 0 1 -80.961 -32.871 a 111.215 111.215 0 0 1 -32.215 -81.232 a 115.099 115.099 0 0 1 46.223 -92.17 a 112.704 112.704 0 0 1 66.497 -21.953 h 35.772 a 100.637 100.637 0 0 0 74.247 -32.784 a 1.39 1.39 0 0 1 0.755 -0.431 a 1.418 1.418 0 0 1 1.52 0.663 c 0.153 0.257 0.222 0.555 0.197 0.854 a 100.93 100.93 0 0 1 -15.608 45.14 a 1.386 1.386 0 0 0 0.115 1.511 a 1.387 1.387 0 0 0 1.424 0.507 a 108.158 108.158 0 0 0 75.198 -62.013 c 0.173 -0.277 0.411 -0.507 0.695 -0.67 a 1.902 1.902 0 0 1 1.869 0 c 0.284 0.162 0.523 0.392 0.694 0.67 a 137.098 137.098 0 0 1 13.447 87.432 z m -189.964 44.858 a 27.823 27.823 0 0 0 -27.293 33.255 a 27.83 27.83 0 0 0 21.862 21.865 a 27.824 27.824 0 0 0 33.251 -27.296 v -25.977 a 2.007 2.007 0 0 0 -1.904 -1.904 z" stroke-linecap="round"/>
</g>
<g transform="matrix(16.442 0 0 16.442 750.5214 691.1011)" id="184556">
<g style="" vector-effect="non-scaling-stroke">
		<g transform="matrix(1 0 0 1 0 1)">
<path style="stroke: none; stroke-width: 1; stroke-dasharray: none; stroke-linecap: butt; stroke-dashoffset: 0; stroke-linejoin: miter; stroke-miterlimit: 4; is-custom-font: none; font-file-url: none; fill: rgb(241,196,15); fill-rule: nonzero; opacity: 1;" transform=" translate(-12, -13)" d="m 2 4 v 13.531 v 2.469 c 0 1.105 0.8954 2 2 2 h 4 h 8 l 6 -6 v -12 h -20 z" stroke-linecap="round"/>
</g>
		<g transform="matrix(1 0 0 1 0 0.5)">
<path style="stroke: none; stroke-width: 1; stroke-dasharray: none; stroke-linecap: butt; stroke-dashoffset: 0; stroke-linejoin: miter; stroke-miterlimit: 4; is-custom-font: none; font-file-url: none; fill: rgb(243,156,18); fill-rule: nonzero; opacity: 1;" transform=" translate(-12, -12.5)" d="m 5 9 v 1 h 14 v -1 h -14 z m 0 3 v 1 h 14 v -1 h -14 z m 0 3 v 1 h 7 v -1 h -7 z" stroke-linecap="round"/>
</g>
		<g transform="matrix(1 0 0 1 7 7)">
<path style="stroke: none; stroke-width: 1; stroke-dasharray: none; stroke-linecap: butt; stroke-dashoffset: 0; stroke-linejoin: miter; stroke-miterlimit: 4; is-custom-font: none; font-file-url: none; fill: rgb(243,156,18); fill-rule: nonzero; opacity: 1;" transform=" translate(-19, -1047.4)" d="m 22 1044.4 l -6 6 v -4 c 0 -1.1 0.895 -2 2 -2 h 4 z" stroke-linecap="round"/>
</g>
		<g transform="matrix(1 0 0 1 0 -8.5)">
<path style="stroke: none; stroke-width: 1; stroke-dasharray: none; stroke-linecap: butt; stroke-dashoffset: 0; stroke-linejoin: miter; stroke-miterlimit: 4; is-custom-font: none; font-file-url: none; fill: rgb(243,156,18); fill-rule: nonzero; opacity: 1;" transform=" translate(-12, -1031.9)" d="m 2 1033.4 v -1 c 0 -1.1 0.8954 -2 2 -2 h 4 h 8 h 4 c 1.105 0 2 0.9 2 2 v 1 h -20 z" stroke-linecap="round"/>
</g>
</g>
</g>
</svg>